<?xml version="1.0" encoding="UTF-8" standalone="no"?>
<!DOCTYPE svg PUBLIC "-//W3C//DTD SVG 1.1//EN" "http://www.w3.org/Graphics/SVG/1.1/DTD/svg11.dtd">
<svg width="100%" height="100%" viewBox="0 0 2048 2048" version="1.1" xmlns="http://www.w3.org/2000/svg" xmlns:xlink="http://www.w3.org/1999/xlink" xml:space="preserve" xmlns:serif="http://www.serif.com/" style="fill-rule:evenodd;clip-rule:evenodd;stroke-linejoin:round;stroke-miterlimit:2;">
    <rect id="Artboard1" x="0" y="0" width="2048" height="2048" style="fill:none;"/>
    <clipPath id="_clip1">
        <rect id="Artboard11" serif:id="Artboard1" x="0" y="0" width="2048" height="2048"/>
    </clipPath>
    <g clip-path="url(#_clip1)">
        <g transform="matrix(2,0,0,2,-5.68434e-14,0)">
            <rect x="0" y="0" width="1024" height="1024" style="fill:url(#_Linear2);"/>
        </g>
        <g transform="matrix(2,0,0,2,-5.68434e-14,0)">
            <rect x="0" y="0" width="1024" height="1024" style="fill:url(#_Radial3);"/>
        </g>
        <g transform="matrix(2.73224,0,0,1.89743,-374.907,93.4007)">
            <path d="M319.361,819.865C306.381,812.205 300.162,790.811 305.482,772.12C310.802,753.43 325.659,744.474 338.639,752.135C454.213,820.342 569.787,820.342 685.361,752.135C698.341,744.474 713.198,753.43 718.518,772.12C723.838,790.811 717.619,812.205 704.639,819.865C576.213,895.658 447.787,895.658 319.361,819.865Z" style="fill:#fff;"/>
        </g>
        <g transform="matrix(1.92889,0,0,1.92889,433.759,257.89)">
            <path d="M216.02,611.195C221.998,614.373 228.304,607.491 224.644,601.795C204.778,570.876 185.966,518.848 215.938,451.843C265.92,340.106 296.334,282.234 296.334,282.234C296.334,282.234 312.511,349.77 356.363,409.819C398.568,467.612 421.669,540.297 384.427,600.848C380.932,606.531 387.095,613.236 393.034,610.197C439.134,586.615 490.84,539.312 496.674,445.18C498.825,416.416 495.599,376.146 479.468,325.329C458.727,260.923 433.229,230.87 418.476,217.964C414.063,214.103 407.2,217.525 407.562,223.377C411.861,292.871 385.717,310.506 370.836,270.763C364.893,254.889 361.427,227.433 361.427,193.997C361.427,138.332 345.277,81.03 309.672,34.466C300.413,22.357 289.579,11.042 277.149,1.393C272.649,-2.101 266.126,1.411 266.538,7.093C269.272,44.829 266.795,152.978 171.914,282.182C85.885,402.033 119.221,494.078 131.05,519.008C153.666,566.767 185.212,594.814 216.02,611.195Z" style="fill:#fff;fill-rule:nonzero;"/>
        </g>
    </g>
    <defs>
        <linearGradient id="_Linear2" x1="0" y1="0" x2="1" y2="0" gradientUnits="userSpaceOnUse" gradientTransform="matrix(744,844,-844,744,140,90)"><stop offset="0" style="stop-color:#f46a10;stop-opacity:1"/><stop offset="0.56" style="stop-color:#e34b0b;stop-opacity:1"/><stop offset="1" style="stop-color:#c7380b;stop-opacity:1"/></linearGradient>
        <radialGradient id="_Radial3" cx="0" cy="0" r="1" gradientUnits="userSpaceOnUse" gradientTransform="matrix(504.634,470.579,-470.579,504.634,380,260)"><stop offset="0" style="stop-color:#ffb05a;stop-opacity:0.2"/><stop offset="0.7" style="stop-color:#ff8b2e;stop-opacity:0.04"/><stop offset="1" style="stop-color:#ff8b2e;stop-opacity:0"/></radialGradient>
    </defs>
</svg>
